# xmcd
# 
# Track frame offsets:
#     150
#     17737
#     30160
#     47952
#     66437
#     85182
#     106542
#     122857
#     142187
#     159547
# 
# Disc length: 2444
# 
# Revision: 1
# Processed by: cddbd v1.5.2PL0 Copyright (c) Steve Scherf et al.
# Submitted via: fre:ac v1.0.27
# 
DISCID=80098a0a
DTITLE=Akira Ishikawa - Back To Rhythm
DYEAR=1975
DGENRE=Jazz
TTITLE0=I've Got To Use My Imagination
TTITLE1=Bongo Rock
TTITLE2=Do It Til You're Satisfied
TTITLE3=Hey Jude
TTITLE4=El Condor Pasa
TTITLE5=Pick Up The Pieces
TTITLE6=Love Is The Answer
TTITLE7=I Shot The Sheriff
TTITLE8=Let's Start
TTITLE9=Boogie On Raggae Woman
EXTD=YEAR: 1975
EXTT0=
EXTT1=
EXTT2=
EXTT3=
EXTT4=
EXTT5=
EXTT6=
EXTT7=
EXTT8=
EXTT9=
PLAYORDER=
